<svg width="122" height="124" viewBox="0 0 122 124" fill="none" xmlns="http://www.w3.org/2000/svg">
<path d="M60.7236 121.447L79.0195 103.15C79.1475 103.874 79.7893 105.037 81.7031 106.142C83.7555 107.327 84.1498 120.246 84 121.658C80.0001 122.226 67.7365 123.706 60.1182 123.706C52.4999 123.706 41.444 122.242 37 121.748C36.8589 120.408 36.8821 107.37 38.7441 106.354C40.5046 105.393 41.5932 103.687 41.9453 102.669L60.7236 121.447ZM121.447 60.7236L79.0195 103.15C79.0103 103.098 79.0042 103.048 79 103C74.9087 103.282 65.2811 103.391 59.6943 103.391C54.1076 103.391 45.5975 102.923 42 102.5C41.9846 102.554 41.9657 102.61 41.9453 102.669L0 60.7236L60.7236 0L121.447 60.7236ZM48.0557 63.6064C48.9021 76.3035 46.363 88.7893 46.1514 93.8682C42.5541 93.6566 42.7646 96.407 42.7646 98.3115C50.3829 99.158 69.2171 99.3696 77.8936 98.3115C77.8934 93.2331 75.6364 94.2208 74.5078 93.8682C74.0846 89.9181 73.1114 80.9174 72.6035 76.5156C72.0956 72.114 72.3919 66.0753 72.6035 63.6064H48.0557ZM42.3418 36.9424C41.4957 36.9425 41.2843 37.7886 41.2842 38.2119V51.7559C41.5664 52.8845 42.5115 55.3537 44.0352 56.2002C45.5586 57.0468 46.7858 59.2332 47.209 60.2207H73.4502C74.0145 59.0216 75.3791 57.0622 76.624 56.2002C79.3751 54.2956 79.5869 52.8139 79.5869 51.7559V38.001C79.5869 37.3238 78.881 37.0129 78.5283 36.9424H71.7568C71.0797 36.9424 70.9102 37.6483 70.9102 38.001V42.6562H65.1963V38.001C65.1963 37.3238 64.7731 37.0129 64.5615 36.9424H56.7324C55.717 36.9424 55.4621 37.7885 55.4619 38.2119V42.6562H49.96V38.2119C49.9597 37.3657 49.1136 37.0129 48.6904 36.9424H42.3418Z" fill="white"/>
</svg>
